<svg xmlns="http://www.w3.org/2000/svg" xmlns:xlink="http://www.w3.org/1999/xlink" width="1080" zoomAndPan="magnify" viewBox="0 0 810 809.999993" height="1080" preserveAspectRatio="xMidYMid meet" version="1.0"><path fill="#f3652f" d="M 368.78125 80.226562 L 361.761719 116.867188 C 361.636719 117.523438 361.605469 118.1875 361.671875 118.855469 C 361.734375 119.519531 361.890625 120.164062 362.140625 120.789062 C 362.390625 121.410156 362.71875 121.984375 363.132812 122.511719 C 363.546875 123.039062 364.027344 123.496094 364.570312 123.886719 C 365.105469 124.273438 365.683594 124.578125 366.300781 124.800781 C 366.921875 125.023438 367.5625 125.160156 368.21875 125.203125 C 368.878906 125.246094 369.527344 125.195312 370.171875 125.058594 C 370.816406 124.917969 371.429688 124.691406 372.011719 124.378906 L 405 106.480469 L 437.777344 124.238281 C 438.359375 124.550781 438.972656 124.777344 439.617188 124.917969 C 440.261719 125.054688 440.910156 125.105469 441.570312 125.0625 C 442.226562 125.019531 442.867188 124.882812 443.488281 124.660156 C 444.109375 124.4375 444.683594 124.132812 445.21875 123.746094 C 445.765625 123.355469 446.242188 122.898438 446.65625 122.371094 C 447.070312 121.84375 447.398438 121.269531 447.648438 120.648438 C 447.898438 120.023438 448.054688 119.378906 448.117188 118.714844 C 448.183594 118.046875 448.152344 117.386719 448.027344 116.726562 L 441.007812 80.085938 L 468.171875 54.539062 C 468.628906 54.089844 469.019531 53.59375 469.339844 53.039062 C 469.660156 52.488281 469.898438 51.902344 470.0625 51.28125 C 470.222656 50.664062 470.296875 50.035156 470.285156 49.394531 C 470.273438 48.757812 470.179688 48.132812 469.996094 47.519531 C 469.789062 46.890625 469.5 46.304688 469.128906 45.757812 C 468.757812 45.210938 468.316406 44.726562 467.808594 44.300781 C 467.296875 43.878906 466.742188 43.535156 466.132812 43.273438 C 465.527344 43.007812 464.898438 42.832031 464.242188 42.746094 L 427.320312 37.902344 L 411.316406 4 C 411.03125 3.40625 410.664062 2.867188 410.226562 2.375 C 409.785156 1.882812 409.285156 1.464844 408.726562 1.113281 C 408.167969 0.761719 407.574219 0.496094 406.9375 0.316406 C 406.304688 0.132812 405.660156 0.0429688 405 0.0429688 C 404.339844 0.0429688 403.695312 0.132812 403.0625 0.316406 C 402.425781 0.496094 401.832031 0.761719 401.273438 1.113281 C 400.714844 1.464844 400.214844 1.882812 399.773438 2.375 C 399.332031 2.867188 398.96875 3.40625 398.683594 4 L 382.609375 37.691406 L 345.6875 42.535156 C 345.03125 42.621094 344.402344 42.796875 343.796875 43.0625 C 343.191406 43.328125 342.632812 43.667969 342.121094 44.09375 C 341.613281 44.515625 341.171875 45 340.800781 45.546875 C 340.429688 46.09375 340.140625 46.679688 339.933594 47.308594 C 339.75 47.921875 339.65625 48.546875 339.644531 49.1875 C 339.632812 49.824219 339.707031 50.453125 339.867188 51.070312 C 340.03125 51.691406 340.269531 52.277344 340.589844 52.828125 C 340.910156 53.382812 341.300781 53.882812 341.757812 54.328125 Z M 388.222656 51.097656 C 389.398438 50.941406 390.464844 50.515625 391.425781 49.816406 C 392.382812 49.121094 393.117188 48.238281 393.628906 47.167969 L 405 23.375 L 416.371094 47.027344 C 416.882812 48.097656 417.617188 48.980469 418.574219 49.675781 C 419.535156 50.375 420.601562 50.800781 421.777344 50.957031 L 447.886719 54.398438 L 428.792969 72.507812 C 427.921875 73.324219 427.300781 74.296875 426.925781 75.433594 C 426.554688 76.566406 426.472656 77.71875 426.6875 78.894531 L 431.53125 104.792969 L 408.367188 92.230469 C 407.835938 91.921875 407.269531 91.6875 406.675781 91.53125 C 406.082031 91.371094 405.476562 91.289062 404.859375 91.289062 C 404.242188 91.289062 403.636719 91.371094 403.042969 91.53125 C 402.449219 91.6875 401.882812 91.921875 401.351562 92.230469 L 378.1875 104.792969 L 383.03125 78.894531 C 383.246094 77.71875 383.167969 76.566406 382.792969 75.433594 C 382.417969 74.296875 381.796875 73.324219 380.925781 72.507812 L 361.832031 54.398438 Z M 388.222656 51.097656 " fill-opacity="1" fill-rule="nonzero"/><path fill="#f3652f" d="M 196.253906 154.558594 L 189.234375 191.199219 C 189.113281 191.851562 189.085938 192.503906 189.152344 193.164062 C 189.21875 193.824219 189.375 194.460938 189.621094 195.074219 C 189.867188 195.691406 190.191406 196.257812 190.597656 196.78125 C 191.007812 197.304688 191.476562 197.757812 192.011719 198.148438 C 192.550781 198.539062 193.128906 198.84375 193.75 199.070312 C 194.375 199.292969 195.015625 199.429688 195.675781 199.472656 C 196.335938 199.515625 196.992188 199.46875 197.636719 199.324219 C 198.285156 199.183594 198.898438 198.953125 199.480469 198.640625 L 232.191406 180.882812 L 264.96875 198.640625 C 265.550781 198.953125 266.167969 199.183594 266.8125 199.324219 C 267.460938 199.46875 268.113281 199.515625 268.773438 199.472656 C 269.433594 199.429688 270.078125 199.292969 270.699219 199.070312 C 271.324219 198.84375 271.902344 198.539062 272.4375 198.148438 C 272.972656 197.757812 273.445312 197.304688 273.851562 196.78125 C 274.257812 196.257812 274.585938 195.691406 274.832031 195.074219 C 275.078125 194.460938 275.234375 193.824219 275.296875 193.164062 C 275.363281 192.503906 275.335938 191.851562 275.21875 191.199219 L 268.199219 154.558594 L 295.222656 128.941406 C 295.683594 128.496094 296.082031 128 296.40625 127.449219 C 296.734375 126.898438 296.980469 126.3125 297.148438 125.695312 C 297.316406 125.078125 297.398438 124.445312 297.390625 123.804688 C 297.386719 123.164062 297.292969 122.535156 297.117188 121.921875 C 296.910156 121.292969 296.621094 120.703125 296.25 120.15625 C 295.878906 119.609375 295.4375 119.125 294.925781 118.703125 C 294.417969 118.28125 293.859375 117.9375 293.253906 117.675781 C 292.648438 117.410156 292.015625 117.234375 291.359375 117.148438 L 254.371094 112.304688 L 238.367188 78.613281 C 238.082031 78.011719 237.722656 77.460938 237.28125 76.960938 C 236.839844 76.460938 236.339844 76.03125 235.777344 75.675781 C 235.214844 75.316406 234.613281 75.046875 233.972656 74.859375 C 233.335938 74.671875 232.679688 74.582031 232.015625 74.582031 C 231.347656 74.582031 230.695312 74.671875 230.054688 74.859375 C 229.417969 75.046875 228.816406 75.316406 228.253906 75.675781 C 227.691406 76.03125 227.1875 76.460938 226.75 76.960938 C 226.308594 77.460938 225.945312 78.011719 225.664062 78.613281 L 209.660156 112.304688 L 173.371094 117.21875 C 172.714844 117.304688 172.085938 117.480469 171.476562 117.746094 C 170.871094 118.007812 170.3125 118.351562 169.804688 118.773438 C 169.296875 119.195312 168.855469 119.679688 168.484375 120.226562 C 168.109375 120.773438 167.820312 121.363281 167.617188 121.992188 C 167.433594 122.605469 167.335938 123.230469 167.324219 123.867188 C 167.316406 124.507812 167.390625 125.136719 167.550781 125.753906 C 167.710938 126.375 167.953125 126.957031 168.273438 127.511719 C 168.59375 128.0625 168.984375 128.5625 169.441406 129.011719 Z M 215.484375 125.429688 C 216.660156 125.273438 217.726562 124.847656 218.683594 124.148438 C 219.644531 123.453125 220.378906 122.570312 220.890625 121.5 L 232.191406 97.707031 L 243.5625 121.5 C 244.074219 122.570312 244.808594 123.453125 245.765625 124.148438 C 246.722656 124.847656 247.792969 125.273438 248.964844 125.429688 L 275.148438 128.871094 L 256.195312 146.980469 C 255.335938 147.800781 254.726562 148.78125 254.367188 149.914062 C 254.003906 151.046875 253.9375 152.199219 254.160156 153.367188 L 258.933594 179.265625 L 235.769531 166.703125 C 235.238281 166.394531 234.671875 166.160156 234.078125 166 C 233.484375 165.84375 232.875 165.761719 232.261719 165.761719 C 231.644531 165.761719 231.039062 165.84375 230.445312 166 C 229.847656 166.160156 229.285156 166.394531 228.75 166.703125 L 205.589844 179.265625 L 210.363281 153.367188 C 210.585938 152.199219 210.515625 151.046875 210.15625 149.914062 C 209.792969 148.78125 209.183594 147.800781 208.324219 146.980469 L 189.515625 128.871094 Z M 215.484375 125.429688 " fill-opacity="1" fill-rule="nonzero"/><path fill="#f3652f" d="M 541.378906 154.558594 L 534.363281 191.199219 C 534.234375 191.855469 534.207031 192.519531 534.269531 193.1875 C 534.335938 193.851562 534.492188 194.496094 534.738281 195.121094 C 534.988281 195.742188 535.320312 196.316406 535.730469 196.84375 C 536.144531 197.371094 536.625 197.828125 537.167969 198.21875 C 537.703125 198.605469 538.28125 198.910156 538.902344 199.132812 C 539.519531 199.355469 540.160156 199.492188 540.820312 199.535156 C 541.476562 199.578125 542.128906 199.527344 542.773438 199.390625 C 543.417969 199.25 544.027344 199.023438 544.609375 198.710938 L 577.386719 180.953125 L 610.097656 198.710938 C 610.683594 199.03125 611.300781 199.261719 611.949219 199.40625 C 612.601562 199.550781 613.257812 199.597656 613.921875 199.554688 C 614.589844 199.511719 615.234375 199.375 615.859375 199.148438 C 616.488281 198.921875 617.070312 198.613281 617.609375 198.21875 C 618.144531 197.824219 618.617188 197.363281 619.023438 196.832031 C 619.429688 196.304688 619.753906 195.730469 619.996094 195.105469 C 620.238281 194.484375 620.390625 193.84375 620.449219 193.179688 C 620.507812 192.511719 620.472656 191.855469 620.34375 191.199219 L 613.324219 154.558594 L 640.417969 128.941406 C 640.875 128.492188 641.265625 127.996094 641.585938 127.441406 C 641.90625 126.890625 642.148438 126.304688 642.308594 125.683594 C 642.46875 125.066406 642.542969 124.4375 642.535156 123.796875 C 642.523438 123.160156 642.425781 122.535156 642.246094 121.921875 C 642.039062 121.308594 641.753906 120.734375 641.386719 120.203125 C 641.023438 119.667969 640.59375 119.195312 640.097656 118.777344 C 639.601562 118.363281 639.0625 118.023438 638.472656 117.757812 C 637.882812 117.496094 637.269531 117.3125 636.628906 117.21875 L 599.636719 112.375 L 583.636719 78.683594 C 583.351562 78.082031 582.988281 77.53125 582.550781 77.03125 C 582.109375 76.53125 581.609375 76.101562 581.046875 75.742188 C 580.484375 75.386719 579.882812 75.117188 579.242188 74.929688 C 578.601562 74.742188 577.949219 74.652344 577.28125 74.652344 C 576.617188 74.652344 575.964844 74.742188 575.324219 74.929688 C 574.683594 75.117188 574.082031 75.386719 573.519531 75.742188 C 572.957031 76.101562 572.457031 76.53125 572.015625 77.03125 C 571.574219 77.53125 571.214844 78.082031 570.929688 78.683594 L 554.925781 112.375 L 518.21875 117.21875 C 517.5625 117.304688 516.929688 117.480469 516.324219 117.746094 C 515.71875 118.007812 515.160156 118.351562 514.652344 118.773438 C 514.140625 119.195312 513.703125 119.679688 513.328125 120.226562 C 512.957031 120.773438 512.667969 121.363281 512.460938 121.992188 C 512.285156 122.605469 512.191406 123.234375 512.1875 123.875 C 512.183594 124.515625 512.261719 125.148438 512.429688 125.765625 C 512.597656 126.382812 512.84375 126.96875 513.171875 127.519531 C 513.5 128.070312 513.894531 128.566406 514.355469 129.011719 Z M 560.824219 125.429688 C 561.996094 125.273438 563.066406 124.847656 564.023438 124.148438 C 564.980469 123.453125 565.71875 122.570312 566.226562 121.5 L 577.597656 97.707031 L 588.898438 121.5 C 589.410156 122.570312 590.144531 123.453125 591.105469 124.148438 C 592.0625 124.847656 593.128906 125.273438 594.304688 125.429688 L 620.484375 128.871094 L 601.535156 146.980469 C 600.675781 147.800781 600.066406 148.78125 599.703125 149.914062 C 599.34375 151.046875 599.273438 152.199219 599.5 153.367188 L 604.269531 179.265625 L 581.109375 166.703125 C 580.574219 166.394531 580.011719 166.160156 579.414062 166 C 578.820312 165.84375 578.214844 165.761719 577.597656 165.761719 C 576.984375 165.761719 576.378906 165.84375 575.78125 166 C 575.1875 166.160156 574.621094 166.394531 574.089844 166.703125 L 550.925781 179.265625 L 555.699219 153.367188 C 555.921875 152.199219 555.855469 151.046875 555.492188 149.914062 C 555.132812 148.78125 554.523438 147.800781 553.664062 146.980469 L 534.5 128.871094 Z M 560.824219 125.429688 " fill-opacity="1" fill-rule="nonzero"/><path fill="#f3652f" d="M 50.398438 277.183594 L 43.378906 313.824219 C 43.253906 314.480469 43.222656 315.144531 43.285156 315.808594 C 43.351562 316.476562 43.507812 317.121094 43.757812 317.742188 C 44.003906 318.363281 44.335938 318.9375 44.75 319.464844 C 45.160156 319.992188 45.640625 320.453125 46.183594 320.839844 C 46.71875 321.226562 47.296875 321.53125 47.917969 321.757812 C 48.539062 321.980469 49.175781 322.113281 49.835938 322.15625 C 50.492188 322.199219 51.144531 322.152344 51.789062 322.011719 C 52.433594 321.871094 53.046875 321.644531 53.625 321.332031 L 86.40625 303.503906 L 119.113281 321.332031 C 119.703125 321.699219 120.335938 321.972656 121.007812 322.148438 C 121.675781 322.328125 122.359375 322.40625 123.054688 322.382812 C 123.75 322.359375 124.425781 322.234375 125.082031 322.007812 C 125.738281 321.785156 126.347656 321.46875 126.914062 321.0625 C 127.476562 320.65625 127.96875 320.179688 128.390625 319.625 C 128.8125 319.074219 129.144531 318.472656 129.386719 317.820312 C 129.628906 317.171875 129.773438 316.5 129.816406 315.804688 C 129.859375 315.113281 129.800781 314.429688 129.640625 313.753906 L 122.625 277.113281 L 149.644531 251.492188 C 150.105469 251.046875 150.492188 250.546875 150.8125 249.996094 C 151.132812 249.441406 151.375 248.855469 151.535156 248.238281 C 151.695312 247.617188 151.769531 246.992188 151.761719 246.351562 C 151.75 245.710938 151.652344 245.085938 151.472656 244.472656 C 151.269531 243.839844 150.984375 243.246094 150.617188 242.691406 C 150.246094 242.136719 149.808594 241.644531 149.296875 241.214844 C 148.789062 240.789062 148.226562 240.4375 147.621094 240.167969 C 147.011719 239.898438 146.375 239.71875 145.714844 239.628906 L 108.796875 234.789062 L 92.722656 201.167969 C 92.433594 200.574219 92.070312 200.03125 91.628906 199.539062 C 91.191406 199.050781 90.691406 198.628906 90.132812 198.277344 C 89.574219 197.929688 88.976562 197.664062 88.34375 197.480469 C 87.710938 197.296875 87.0625 197.207031 86.40625 197.207031 C 85.746094 197.207031 85.097656 197.296875 84.464844 197.480469 C 83.832031 197.664062 83.234375 197.929688 82.675781 198.277344 C 82.117188 198.628906 81.617188 199.050781 81.179688 199.539062 C 80.738281 200.03125 80.375 200.574219 80.085938 201.167969 L 64.015625 234.789062 L 27.09375 239.628906 C 26.433594 239.71875 25.800781 239.898438 25.191406 240.167969 C 24.582031 240.4375 24.023438 240.789062 23.511719 241.214844 C 23.003906 241.644531 22.5625 242.136719 22.191406 242.691406 C 21.824219 243.246094 21.539062 243.839844 21.339844 244.472656 C 21.15625 245.085938 21.058594 245.710938 21.050781 246.351562 C 21.039062 246.992188 21.113281 247.617188 21.273438 248.238281 C 21.433594 248.855469 21.675781 249.441406 21.996094 249.996094 C 22.316406 250.546875 22.707031 251.046875 23.164062 251.492188 Z M 69.839844 248.054688 C 71.015625 247.898438 72.082031 247.46875 73.039062 246.773438 C 74 246.074219 74.734375 245.191406 75.246094 244.125 L 86.617188 220.328125 L 97.984375 244.125 C 98.496094 245.191406 99.230469 246.074219 100.191406 246.773438 C 101.148438 247.46875 102.214844 247.898438 103.390625 248.054688 L 129.5 251.492188 L 110.199219 269.671875 C 109.328125 270.488281 108.707031 271.464844 108.332031 272.597656 C 107.957031 273.730469 107.878906 274.886719 108.09375 276.058594 L 112.9375 301.960938 L 89.773438 289.394531 C 89.242188 289.089844 88.675781 288.855469 88.082031 288.695312 C 87.484375 288.535156 86.878906 288.457031 86.265625 288.457031 C 85.648438 288.457031 85.042969 288.535156 84.449219 288.695312 C 83.851562 288.855469 83.289062 289.089844 82.753906 289.394531 L 59.59375 301.960938 L 64.433594 276.058594 C 64.648438 274.886719 64.570312 273.730469 64.195312 272.597656 C 63.824219 271.464844 63.199219 270.488281 62.328125 269.671875 L 43.238281 251.492188 Z M 69.839844 248.054688 " fill-opacity="1" fill-rule="nonzero"/><path fill="#f3652f" d="M 687.167969 277.183594 L 680.148438 313.824219 C 680.015625 314.480469 679.976562 315.144531 680.035156 315.816406 C 680.089844 316.484375 680.242188 317.132812 680.484375 317.757812 C 680.730469 318.386719 681.054688 318.964844 681.464844 319.496094 C 681.875 320.027344 682.351562 320.492188 682.894531 320.886719 C 683.441406 321.285156 684.027344 321.59375 684.660156 321.820312 C 685.292969 322.046875 685.945312 322.179688 686.617188 322.21875 C 687.285156 322.261719 687.949219 322.203125 688.605469 322.054688 C 689.257812 321.902344 689.878906 321.660156 690.464844 321.332031 L 723.175781 303.503906 L 755.953125 321.332031 C 756.535156 321.644531 757.144531 321.871094 757.789062 322.011719 C 758.433594 322.152344 759.085938 322.199219 759.742188 322.15625 C 760.402344 322.113281 761.042969 321.980469 761.660156 321.757812 C 762.28125 321.53125 762.859375 321.226562 763.394531 320.839844 C 763.9375 320.453125 764.417969 319.992188 764.828125 319.464844 C 765.242188 318.9375 765.574219 318.363281 765.824219 317.742188 C 766.070312 317.121094 766.226562 316.476562 766.292969 315.808594 C 766.355469 315.144531 766.328125 314.480469 766.199219 313.824219 L 759.183594 277.183594 L 786.207031 251.5625 C 786.664062 251.117188 787.050781 250.617188 787.371094 250.066406 C 787.691406 249.511719 787.933594 248.925781 788.09375 248.308594 C 788.253906 247.6875 788.332031 247.058594 788.320312 246.421875 C 788.308594 245.78125 788.210938 245.15625 788.03125 244.542969 C 787.828125 243.910156 787.542969 243.316406 787.175781 242.761719 C 786.804688 242.207031 786.367188 241.714844 785.855469 241.285156 C 785.347656 240.859375 784.789062 240.507812 784.179688 240.238281 C 783.570312 239.96875 782.933594 239.789062 782.273438 239.699219 L 745.355469 234.859375 L 729.28125 201.238281 C 728.992188 200.644531 728.628906 200.101562 728.1875 199.609375 C 727.75 199.121094 727.25 198.699219 726.691406 198.347656 C 726.132812 198 725.535156 197.734375 724.902344 197.550781 C 724.269531 197.367188 723.621094 197.277344 722.964844 197.277344 C 722.304688 197.277344 721.65625 197.367188 721.023438 197.550781 C 720.390625 197.734375 719.792969 198 719.234375 198.347656 C 718.675781 198.699219 718.179688 199.121094 717.738281 199.609375 C 717.296875 200.101562 716.933594 200.644531 716.644531 201.238281 L 700.574219 234.859375 L 663.652344 239.699219 C 662.992188 239.789062 662.359375 239.96875 661.75 240.238281 C 661.140625 240.507812 660.582031 240.859375 660.070312 241.285156 C 659.5625 241.714844 659.121094 242.207031 658.753906 242.761719 C 658.382812 243.316406 658.097656 243.910156 657.898438 244.542969 C 657.714844 245.15625 657.617188 245.78125 657.609375 246.421875 C 657.597656 247.058594 657.671875 247.6875 657.832031 248.308594 C 657.992188 248.925781 658.234375 249.511719 658.554688 250.066406 C 658.875 250.617188 659.265625 251.117188 659.722656 251.5625 Z M 706.820312 248.054688 C 707.996094 247.898438 709.0625 247.46875 710.019531 246.773438 C 710.976562 246.074219 711.714844 245.191406 712.222656 244.125 L 723.59375 220.328125 L 734.894531 244.125 C 735.40625 245.191406 736.140625 246.074219 737.101562 246.773438 C 738.058594 247.46875 739.125 247.898438 740.300781 248.054688 L 766.410156 251.492188 L 747.320312 269.671875 C 746.449219 270.488281 745.824219 271.464844 745.453125 272.597656 C 745.078125 273.730469 745 274.886719 745.214844 276.058594 L 750.058594 301.960938 L 726.894531 289.394531 C 726.359375 289.089844 725.796875 288.855469 725.203125 288.695312 C 724.605469 288.535156 724 288.457031 723.382812 288.457031 C 722.769531 288.457031 722.164062 288.535156 721.566406 288.695312 C 720.972656 288.855469 720.410156 289.089844 719.875 289.394531 L 696.710938 301.960938 L 701.554688 276.058594 C 701.769531 274.886719 701.691406 273.730469 701.316406 272.597656 C 700.945312 271.464844 700.320312 270.488281 699.449219 269.671875 L 680.359375 251.492188 Z M 706.820312 248.054688 " fill-opacity="1" fill-rule="nonzero"/><path fill="#f3652f" d="M 781.921875 442.550781 L 587.496094 442.550781 L 587.496094 292.695312 C 587.496094 292.234375 587.449219 291.777344 587.359375 291.324219 C 587.269531 290.875 587.136719 290.433594 586.960938 290.007812 C 586.785156 289.582031 586.570312 289.179688 586.3125 288.796875 C 586.054688 288.414062 585.765625 288.058594 585.441406 287.730469 C 585.113281 287.40625 584.757812 287.113281 584.375 286.859375 C 583.992188 286.601562 583.589844 286.386719 583.164062 286.210938 C 582.738281 286.035156 582.296875 285.902344 581.847656 285.8125 C 581.394531 285.722656 580.9375 285.675781 580.476562 285.675781 L 539.203125 285.675781 L 539.203125 242.578125 C 539.203125 242.117188 539.160156 241.660156 539.070312 241.210938 C 538.980469 240.757812 538.847656 240.320312 538.671875 239.894531 C 538.492188 239.46875 538.277344 239.0625 538.023438 238.679688 C 537.765625 238.296875 537.472656 237.941406 537.148438 237.617188 C 536.824219 237.289062 536.46875 237 536.085938 236.742188 C 535.703125 236.488281 535.296875 236.269531 534.871094 236.09375 C 534.445312 235.917969 534.007812 235.785156 533.554688 235.695312 C 533.101562 235.605469 532.644531 235.558594 532.183594 235.558594 L 277.816406 235.558594 C 277.355469 235.558594 276.898438 235.605469 276.445312 235.695312 C 275.992188 235.785156 275.554688 235.917969 275.128906 236.09375 C 274.703125 236.269531 274.296875 236.488281 273.914062 236.742188 C 273.53125 237 273.175781 237.289062 272.851562 237.617188 C 272.527344 237.941406 272.234375 238.296875 271.976562 238.679688 C 271.722656 239.0625 271.507812 239.46875 271.328125 239.894531 C 271.152344 240.320312 271.019531 240.757812 270.929688 241.210938 C 270.839844 241.660156 270.796875 242.117188 270.796875 242.578125 L 270.796875 285.675781 L 229.523438 285.675781 C 229.0625 285.675781 228.605469 285.722656 228.152344 285.8125 C 227.703125 285.902344 227.261719 286.035156 226.835938 286.210938 C 226.410156 286.386719 226.007812 286.601562 225.625 286.859375 C 225.242188 287.113281 224.886719 287.40625 224.558594 287.730469 C 224.234375 288.058594 223.941406 288.414062 223.6875 288.796875 C 223.429688 289.179688 223.214844 289.582031 223.039062 290.007812 C 222.863281 290.433594 222.730469 290.875 222.640625 291.324219 C 222.550781 291.777344 222.503906 292.234375 222.503906 292.695312 L 222.503906 442.902344 L 28.078125 442.902344 C 27.15625 442.902344 26.238281 442.949219 25.324219 443.039062 C 24.410156 443.128906 23.5 443.261719 22.597656 443.441406 C 21.695312 443.621094 20.804688 443.84375 19.925781 444.113281 C 19.046875 444.378906 18.179688 444.6875 17.332031 445.039062 C 16.480469 445.390625 15.652344 445.785156 14.839844 446.21875 C 14.03125 446.652344 13.242188 447.125 12.476562 447.632812 C 11.714844 448.144531 10.976562 448.691406 10.265625 449.277344 C 9.554688 449.859375 8.875 450.476562 8.222656 451.125 C 7.574219 451.777344 6.957031 452.457031 6.371094 453.167969 C 5.789062 453.878906 5.242188 454.617188 4.730469 455.382812 C 4.222656 456.144531 3.75 456.933594 3.316406 457.746094 C 2.882812 458.554688 2.488281 459.386719 2.136719 460.234375 C 1.785156 461.085938 1.476562 461.949219 1.207031 462.828125 C 0.941406 463.710938 0.71875 464.601562 0.539062 465.5 C 0.359375 466.402344 0.226562 467.3125 0.136719 468.226562 C 0.046875 469.140625 0 470.058594 0 470.980469 L 0 802.980469 C 0 803.441406 0.046875 803.898438 0.136719 804.351562 C 0.226562 804.800781 0.359375 805.242188 0.535156 805.667969 C 0.710938 806.09375 0.925781 806.496094 1.183594 806.878906 C 1.4375 807.261719 1.730469 807.617188 2.054688 807.945312 C 2.382812 808.269531 2.734375 808.5625 3.121094 808.816406 C 3.503906 809.074219 3.90625 809.289062 4.332031 809.464844 C 4.757812 809.640625 5.199219 809.773438 5.648438 809.863281 C 6.101562 809.953125 6.558594 810 7.019531 810 L 802.980469 810 C 803.441406 810 803.898438 809.953125 804.351562 809.863281 C 804.800781 809.773438 805.242188 809.640625 805.667969 809.464844 C 806.09375 809.289062 806.496094 809.074219 806.878906 808.816406 C 807.261719 808.5625 807.617188 808.269531 807.945312 807.945312 C 808.269531 807.617188 808.5625 807.261719 808.816406 806.878906 C 809.074219 806.496094 809.289062 806.09375 809.464844 805.667969 C 809.640625 805.242188 809.773438 804.800781 809.863281 804.351562 C 809.953125 803.898438 810 803.441406 810 802.980469 L 810 470.628906 C 810 469.707031 809.953125 468.792969 809.863281 467.875 C 809.773438 466.960938 809.640625 466.050781 809.460938 465.152344 C 809.28125 464.25 809.058594 463.359375 808.789062 462.476562 C 808.523438 461.597656 808.214844 460.734375 807.863281 459.882812 C 807.511719 459.035156 807.117188 458.203125 806.683594 457.394531 C 806.25 456.582031 805.777344 455.792969 805.269531 455.03125 C 804.757812 454.265625 804.210938 453.527344 803.625 452.816406 C 803.042969 452.105469 802.425781 451.425781 801.777344 450.773438 C 801.125 450.125 800.445312 449.507812 799.734375 448.925781 C 799.023438 448.339844 798.285156 447.792969 797.523438 447.285156 C 796.757812 446.773438 795.96875 446.300781 795.160156 445.867188 C 794.347656 445.433594 793.515625 445.039062 792.667969 444.6875 C 791.820312 444.335938 790.953125 444.027344 790.074219 443.761719 C 789.195312 443.492188 788.304688 443.269531 787.402344 443.089844 C 786.5 442.914062 785.589844 442.777344 784.675781 442.6875 C 783.761719 442.597656 782.84375 442.550781 781.921875 442.550781 Z M 284.832031 249.597656 L 525.167969 249.597656 L 525.167969 285.675781 L 284.832031 285.675781 Z M 14.039062 470.628906 C 14.039062 469.707031 14.128906 468.792969 14.308594 467.890625 C 14.488281 466.984375 14.753906 466.109375 15.105469 465.257812 C 15.460938 464.40625 15.890625 463.59375 16.402344 462.828125 C 16.917969 462.0625 17.496094 461.355469 18.148438 460.703125 C 18.800781 460.050781 19.511719 459.46875 20.277344 458.957031 C 21.042969 458.445312 21.851562 458.011719 22.703125 457.660156 C 23.554688 457.304688 24.433594 457.039062 25.335938 456.859375 C 26.242188 456.679688 27.15625 456.589844 28.078125 456.589844 L 222.503906 456.589844 L 222.503906 795.960938 L 14.039062 795.960938 Z M 236.542969 299.714844 L 573.457031 299.714844 L 573.457031 795.960938 L 480.59375 795.960938 L 480.59375 718.050781 L 521.9375 718.050781 C 522.398438 718.050781 522.855469 718.003906 523.308594 717.914062 C 523.757812 717.824219 524.199219 717.691406 524.625 717.515625 C 525.050781 717.339844 525.453125 717.125 525.835938 716.867188 C 526.21875 716.609375 526.574219 716.320312 526.902344 715.996094 C 527.226562 715.667969 527.515625 715.3125 527.773438 714.929688 C 528.03125 714.546875 528.246094 714.144531 528.421875 713.71875 C 528.597656 713.292969 528.730469 712.851562 528.820312 712.402344 C 528.910156 711.949219 528.957031 711.492188 528.957031 711.03125 C 528.957031 710.570312 528.910156 710.113281 528.820312 709.660156 C 528.730469 709.210938 528.597656 708.769531 528.421875 708.34375 C 528.246094 707.917969 528.03125 707.515625 527.773438 707.132812 C 527.515625 706.75 527.226562 706.394531 526.902344 706.066406 C 526.574219 705.742188 526.21875 705.449219 525.835938 705.195312 C 525.453125 704.9375 525.050781 704.722656 524.625 704.546875 C 524.199219 704.371094 523.757812 704.238281 523.308594 704.148438 C 522.855469 704.058594 522.398438 704.011719 521.9375 704.011719 L 288.0625 704.011719 C 287.601562 704.011719 287.144531 704.058594 286.691406 704.148438 C 286.242188 704.238281 285.800781 704.371094 285.375 704.546875 C 284.949219 704.722656 284.546875 704.9375 284.164062 705.195312 C 283.78125 705.449219 283.425781 705.742188 283.097656 706.066406 C 282.773438 706.394531 282.480469 706.75 282.226562 707.132812 C 281.96875 707.515625 281.753906 707.917969 281.578125 708.34375 C 281.402344 708.769531 281.269531 709.210938 281.179688 709.660156 C 281.089844 710.113281 281.042969 710.570312 281.042969 711.03125 C 281.042969 711.492188 281.089844 711.949219 281.179688 712.402344 C 281.269531 712.851562 281.402344 713.292969 281.578125 713.71875 C 281.753906 714.144531 281.96875 714.546875 282.226562 714.929688 C 282.480469 715.3125 282.773438 715.667969 283.097656 715.996094 C 283.425781 716.320312 283.78125 716.609375 284.164062 716.867188 C 284.546875 717.125 284.949219 717.339844 285.375 717.515625 C 285.800781 717.691406 286.242188 717.824219 286.691406 717.914062 C 287.144531 718.003906 287.601562 718.050781 288.0625 718.050781 L 330.175781 718.050781 L 330.175781 795.960938 L 236.542969 795.960938 Z M 344.355469 718.050781 L 397.980469 718.050781 L 397.980469 795.960938 L 344.355469 795.960938 Z M 412.019531 795.960938 L 412.019531 718.050781 L 466.558594 718.050781 L 466.558594 795.960938 Z M 795.960938 795.960938 L 587.496094 795.960938 L 587.496094 456.589844 L 781.921875 456.589844 C 782.84375 456.589844 783.757812 456.679688 784.664062 456.859375 C 785.566406 457.039062 786.445312 457.304688 787.296875 457.660156 C 788.148438 458.011719 788.957031 458.445312 789.722656 458.957031 C 790.488281 459.46875 791.199219 460.050781 791.851562 460.703125 C 792.5 461.351562 793.082031 462.0625 793.597656 462.828125 C 794.109375 463.59375 794.539062 464.40625 794.894531 465.257812 C 795.246094 466.109375 795.511719 466.984375 795.691406 467.890625 C 795.871094 468.792969 795.960938 469.707031 795.960938 470.628906 Z M 795.960938 795.960938 " fill-opacity="1" fill-rule="nonzero"/><path fill="#f3652f" d="M 311.578125 426.058594 L 384.503906 426.058594 C 384.964844 426.058594 385.421875 426.011719 385.875 425.921875 C 386.324219 425.832031 386.765625 425.699219 387.191406 425.523438 C 387.617188 425.347656 388.019531 425.128906 388.402344 424.875 C 388.785156 424.617188 389.140625 424.328125 389.46875 424 C 389.792969 423.675781 390.085938 423.320312 390.339844 422.9375 C 390.597656 422.554688 390.8125 422.148438 390.988281 421.722656 C 391.164062 421.296875 391.296875 420.859375 391.386719 420.40625 C 391.476562 419.957031 391.523438 419.5 391.523438 419.039062 L 391.523438 345.898438 C 391.523438 345.4375 391.476562 344.980469 391.386719 344.53125 C 391.296875 344.078125 391.164062 343.640625 390.988281 343.214844 C 390.8125 342.789062 390.597656 342.382812 390.339844 342 C 390.085938 341.617188 389.792969 341.261719 389.46875 340.9375 C 389.140625 340.609375 388.785156 340.320312 388.402344 340.0625 C 388.019531 339.808594 387.617188 339.589844 387.191406 339.414062 C 386.765625 339.238281 386.324219 339.105469 385.875 339.015625 C 385.421875 338.925781 384.964844 338.878906 384.503906 338.878906 L 311.578125 338.878906 C 311.117188 338.878906 310.660156 338.925781 310.207031 339.015625 C 309.753906 339.105469 309.316406 339.238281 308.890625 339.414062 C 308.464844 339.589844 308.058594 339.808594 307.675781 340.0625 C 307.292969 340.320312 306.9375 340.609375 306.613281 340.9375 C 306.289062 341.261719 305.996094 341.617188 305.738281 342 C 305.484375 342.382812 305.269531 342.789062 305.089844 343.214844 C 304.914062 343.640625 304.78125 344.078125 304.691406 344.53125 C 304.601562 344.980469 304.558594 345.4375 304.558594 345.898438 L 304.558594 419.039062 C 304.558594 419.5 304.601562 419.957031 304.691406 420.40625 C 304.78125 420.859375 304.914062 421.296875 305.089844 421.722656 C 305.269531 422.148438 305.484375 422.554688 305.738281 422.9375 C 305.996094 423.320312 306.285156 423.675781 306.613281 424 C 306.9375 424.328125 307.292969 424.617188 307.675781 424.875 C 308.058594 425.128906 308.464844 425.347656 308.890625 425.523438 C 309.316406 425.699219 309.753906 425.832031 310.207031 425.921875 C 310.660156 426.011719 311.117188 426.058594 311.578125 426.058594 Z M 318.59375 353.128906 L 377.484375 353.128906 L 377.484375 412.019531 L 318.59375 412.019531 Z M 318.59375 353.128906 " fill-opacity="1" fill-rule="nonzero"/><path fill="#f3652f" d="M 311.578125 544.890625 L 384.503906 544.890625 C 384.964844 544.890625 385.421875 544.84375 385.875 544.753906 C 386.324219 544.664062 386.765625 544.53125 387.191406 544.355469 C 387.617188 544.179688 388.019531 543.964844 388.402344 543.707031 C 388.785156 543.449219 389.140625 543.160156 389.46875 542.835938 C 389.792969 542.507812 390.085938 542.152344 390.339844 541.769531 C 390.597656 541.386719 390.8125 540.984375 390.988281 540.558594 C 391.164062 540.132812 391.296875 539.691406 391.386719 539.238281 C 391.476562 538.789062 391.523438 538.332031 391.523438 537.871094 L 391.523438 464.941406 C 391.523438 464.480469 391.476562 464.027344 391.386719 463.574219 C 391.296875 463.121094 391.164062 462.683594 390.988281 462.257812 C 390.8125 461.832031 390.597656 461.425781 390.339844 461.042969 C 390.085938 460.660156 389.792969 460.304688 389.46875 459.980469 C 389.140625 459.652344 388.785156 459.363281 388.402344 459.105469 C 388.019531 458.851562 387.617188 458.632812 387.191406 458.457031 C 386.765625 458.28125 386.324219 458.148438 385.875 458.058594 C 385.421875 457.96875 384.964844 457.921875 384.503906 457.921875 L 311.578125 457.921875 C 311.117188 457.921875 310.660156 457.96875 310.207031 458.058594 C 309.753906 458.148438 309.316406 458.28125 308.890625 458.457031 C 308.464844 458.632812 308.058594 458.851562 307.675781 459.105469 C 307.292969 459.363281 306.9375 459.652344 306.613281 459.980469 C 306.289062 460.304688 305.996094 460.660156 305.738281 461.042969 C 305.484375 461.425781 305.269531 461.832031 305.089844 462.257812 C 304.914062 462.683594 304.78125 463.121094 304.691406 463.574219 C 304.601562 464.027344 304.558594 464.480469 304.558594 464.941406 L 304.558594 537.871094 C 304.558594 538.332031 304.601562 538.789062 304.691406 539.242188 C 304.78125 539.691406 304.914062 540.132812 305.089844 540.558594 C 305.269531 540.984375 305.484375 541.386719 305.738281 541.769531 C 305.996094 542.152344 306.285156 542.507812 306.613281 542.835938 C 306.9375 543.160156 307.292969 543.449219 307.675781 543.707031 C 308.058594 543.964844 308.464844 544.179688 308.890625 544.355469 C 309.316406 544.53125 309.753906 544.664062 310.207031 544.753906 C 310.660156 544.84375 311.117188 544.890625 311.578125 544.890625 Z M 318.59375 471.960938 L 377.484375 471.960938 L 377.484375 530.851562 L 318.59375 530.851562 Z M 318.59375 471.960938 " fill-opacity="1" fill-rule="nonzero"/><path fill="#f3652f" d="M 311.578125 663.933594 L 384.503906 663.933594 C 384.964844 663.933594 385.421875 663.886719 385.875 663.796875 C 386.324219 663.707031 386.765625 663.574219 387.191406 663.398438 C 387.617188 663.222656 388.019531 663.007812 388.402344 662.75 C 388.785156 662.496094 389.140625 662.203125 389.46875 661.878906 C 389.792969 661.550781 390.085938 661.195312 390.339844 660.8125 C 390.597656 660.429688 390.8125 660.027344 390.988281 659.601562 C 391.164062 659.175781 391.296875 658.734375 391.386719 658.285156 C 391.476562 657.832031 391.523438 657.375 391.523438 656.914062 L 391.523438 583.984375 C 391.523438 583.523438 391.476562 583.070312 391.386719 582.617188 C 391.296875 582.164062 391.164062 581.726562 390.988281 581.300781 C 390.8125 580.875 390.597656 580.46875 390.339844 580.085938 C 390.085938 579.703125 389.792969 579.347656 389.46875 579.023438 C 389.140625 578.695312 388.785156 578.40625 388.402344 578.148438 C 388.019531 577.894531 387.617188 577.675781 387.191406 577.5 C 386.765625 577.324219 386.324219 577.191406 385.875 577.101562 C 385.421875 577.011719 384.964844 576.96875 384.503906 576.96875 L 311.578125 576.96875 C 311.117188 576.96875 310.660156 577.011719 310.207031 577.101562 C 309.753906 577.191406 309.316406 577.324219 308.890625 577.5 C 308.464844 577.679688 308.058594 577.894531 307.675781 578.148438 C 307.292969 578.40625 306.9375 578.695312 306.613281 579.023438 C 306.289062 579.347656 305.996094 579.703125 305.738281 580.085938 C 305.484375 580.46875 305.269531 580.875 305.089844 581.300781 C 304.914062 581.726562 304.78125 582.164062 304.691406 582.617188 C 304.601562 583.070312 304.558594 583.523438 304.558594 583.984375 L 304.558594 656.914062 C 304.558594 657.375 304.601562 657.832031 304.691406 658.285156 C 304.78125 658.734375 304.914062 659.175781 305.089844 659.601562 C 305.269531 660.027344 305.484375 660.429688 305.738281 660.8125 C 305.996094 661.195312 306.285156 661.550781 306.613281 661.878906 C 306.9375 662.203125 307.292969 662.496094 307.675781 662.75 C 308.058594 663.007812 308.464844 663.222656 308.890625 663.398438 C 309.316406 663.574219 309.753906 663.707031 310.207031 663.796875 C 310.660156 663.886719 311.117188 663.933594 311.578125 663.933594 Z M 318.59375 591.003906 L 377.484375 591.003906 L 377.484375 649.894531 L 318.59375 649.894531 Z M 318.59375 591.003906 " fill-opacity="1" fill-rule="nonzero"/><path fill="#f3652f" d="M 425.496094 426.058594 L 498.421875 426.058594 C 498.882812 426.058594 499.339844 426.011719 499.792969 425.921875 C 500.246094 425.832031 500.683594 425.699219 501.109375 425.523438 C 501.535156 425.347656 501.941406 425.128906 502.324219 424.875 C 502.707031 424.617188 503.0625 424.328125 503.386719 424 C 503.710938 423.675781 504.003906 423.320312 504.261719 422.9375 C 504.515625 422.554688 504.730469 422.148438 504.910156 421.722656 C 505.085938 421.296875 505.21875 420.859375 505.308594 420.40625 C 505.398438 419.957031 505.441406 419.5 505.441406 419.039062 L 505.441406 345.898438 C 505.441406 345.4375 505.398438 344.980469 505.308594 344.53125 C 505.21875 344.078125 505.085938 343.640625 504.910156 343.214844 C 504.730469 342.789062 504.515625 342.382812 504.261719 342 C 504.003906 341.617188 503.710938 341.261719 503.386719 340.9375 C 503.0625 340.609375 502.707031 340.320312 502.324219 340.0625 C 501.941406 339.808594 501.535156 339.589844 501.109375 339.414062 C 500.683594 339.238281 500.246094 339.105469 499.792969 339.015625 C 499.339844 338.925781 498.882812 338.878906 498.421875 338.878906 L 425.496094 338.878906 C 425.035156 338.878906 424.578125 338.925781 424.125 339.015625 C 423.675781 339.105469 423.234375 339.238281 422.808594 339.414062 C 422.382812 339.589844 421.980469 339.808594 421.597656 340.0625 C 421.210938 340.320312 420.859375 340.609375 420.53125 340.9375 C 420.207031 341.261719 419.914062 341.617188 419.660156 342 C 419.402344 342.382812 419.1875 342.789062 419.011719 343.214844 C 418.835938 343.640625 418.703125 344.078125 418.613281 344.53125 C 418.523438 344.980469 418.476562 345.4375 418.476562 345.898438 L 418.476562 419.039062 C 418.476562 419.5 418.523438 419.957031 418.613281 420.40625 C 418.703125 420.859375 418.835938 421.296875 419.011719 421.722656 C 419.1875 422.148438 419.402344 422.554688 419.660156 422.9375 C 419.914062 423.320312 420.207031 423.675781 420.53125 424 C 420.859375 424.328125 421.210938 424.617188 421.597656 424.875 C 421.980469 425.128906 422.382812 425.347656 422.808594 425.523438 C 423.234375 425.699219 423.675781 425.832031 424.125 425.921875 C 424.578125 426.011719 425.035156 426.058594 425.496094 426.058594 Z M 432.515625 353.128906 L 491.40625 353.128906 L 491.40625 412.019531 L 432.515625 412.019531 Z M 432.515625 353.128906 " fill-opacity="1" fill-rule="nonzero"/><path fill="#f3652f" d="M 425.496094 544.890625 L 498.421875 544.890625 C 498.882812 544.890625 499.339844 544.84375 499.792969 544.753906 C 500.246094 544.664062 500.683594 544.53125 501.109375 544.355469 C 501.535156 544.179688 501.941406 543.964844 502.324219 543.707031 C 502.707031 543.449219 503.0625 543.160156 503.386719 542.835938 C 503.710938 542.507812 504.003906 542.152344 504.261719 541.769531 C 504.515625 541.386719 504.730469 540.984375 504.910156 540.558594 C 505.085938 540.132812 505.21875 539.691406 505.308594 539.238281 C 505.398438 538.789062 505.441406 538.332031 505.441406 537.871094 L 505.441406 464.941406 C 505.441406 464.480469 505.398438 464.027344 505.308594 463.574219 C 505.21875 463.121094 505.085938 462.683594 504.910156 462.257812 C 504.730469 461.832031 504.515625 461.425781 504.261719 461.042969 C 504.003906 460.660156 503.710938 460.304688 503.386719 459.980469 C 503.0625 459.652344 502.707031 459.363281 502.324219 459.105469 C 501.941406 458.851562 501.535156 458.632812 501.109375 458.457031 C 500.683594 458.28125 500.246094 458.148438 499.792969 458.058594 C 499.339844 457.96875 498.882812 457.921875 498.421875 457.921875 L 425.496094 457.921875 C 425.035156 457.921875 424.578125 457.96875 424.125 458.058594 C 423.675781 458.148438 423.234375 458.28125 422.808594 458.457031 C 422.382812 458.632812 421.980469 458.851562 421.597656 459.105469 C 421.210938 459.363281 420.859375 459.652344 420.53125 459.980469 C 420.207031 460.304688 419.914062 460.660156 419.660156 461.042969 C 419.402344 461.425781 419.1875 461.832031 419.011719 462.257812 C 418.835938 462.683594 418.703125 463.121094 418.613281 463.574219 C 418.523438 464.027344 418.476562 464.480469 418.476562 464.941406 L 418.476562 537.871094 C 418.476562 538.332031 418.523438 538.789062 418.613281 539.242188 C 418.703125 539.691406 418.835938 540.132812 419.011719 540.558594 C 419.1875 540.984375 419.402344 541.386719 419.660156 541.769531 C 419.914062 542.152344 420.207031 542.507812 420.53125 542.835938 C 420.859375 543.160156 421.210938 543.449219 421.597656 543.707031 C 421.980469 543.964844 422.382812 544.179688 422.808594 544.355469 C 423.234375 544.53125 423.675781 544.664062 424.125 544.753906 C 424.578125 544.84375 425.035156 544.890625 425.496094 544.890625 Z M 432.515625 471.960938 L 491.40625 471.960938 L 491.40625 530.851562 L 432.515625 530.851562 Z M 432.515625 471.960938 " fill-opacity="1" fill-rule="nonzero"/><path fill="#f3652f" d="M 425.496094 663.933594 L 498.421875 663.933594 C 498.882812 663.933594 499.339844 663.886719 499.792969 663.796875 C 500.246094 663.707031 500.683594 663.574219 501.109375 663.398438 C 501.535156 663.222656 501.941406 663.007812 502.324219 662.75 C 502.707031 662.496094 503.0625 662.203125 503.386719 661.878906 C 503.710938 661.550781 504.003906 661.195312 504.261719 660.8125 C 504.515625 660.429688 504.730469 660.027344 504.910156 659.601562 C 505.085938 659.175781 505.21875 658.734375 505.308594 658.285156 C 505.398438 657.832031 505.441406 657.375 505.441406 656.914062 L 505.441406 583.984375 C 505.441406 583.523438 505.398438 583.070312 505.308594 582.617188 C 505.21875 582.164062 505.085938 581.726562 504.910156 581.300781 C 504.730469 580.875 504.515625 580.46875 504.261719 580.085938 C 504.003906 579.703125 503.710938 579.347656 503.386719 579.023438 C 503.0625 578.695312 502.707031 578.40625 502.324219 578.148438 C 501.941406 577.894531 501.535156 577.675781 501.109375 577.5 C 500.683594 577.324219 500.246094 577.191406 499.792969 577.101562 C 499.339844 577.011719 498.882812 576.96875 498.421875 576.96875 L 425.496094 576.96875 C 425.035156 576.96875 424.578125 577.011719 424.125 577.101562 C 423.675781 577.191406 423.234375 577.324219 422.808594 577.5 C 422.382812 577.679688 421.980469 577.894531 421.597656 578.148438 C 421.210938 578.40625 420.859375 578.695312 420.53125 579.023438 C 420.207031 579.347656 419.914062 579.703125 419.660156 580.085938 C 419.402344 580.46875 419.1875 580.875 419.011719 581.300781 C 418.835938 581.726562 418.703125 582.164062 418.613281 582.617188 C 418.523438 583.070312 418.476562 583.523438 418.476562 583.984375 L 418.476562 656.914062 C 418.476562 657.375 418.523438 657.832031 418.613281 658.285156 C 418.703125 658.734375 418.835938 659.175781 419.011719 659.601562 C 419.1875 660.027344 419.402344 660.429688 419.660156 660.8125 C 419.914062 661.195312 420.207031 661.550781 420.53125 661.878906 C 420.859375 662.203125 421.210938 662.496094 421.597656 662.75 C 421.980469 663.007812 422.382812 663.222656 422.808594 663.398438 C 423.234375 663.574219 423.675781 663.707031 424.125 663.796875 C 424.578125 663.886719 425.035156 663.933594 425.496094 663.933594 Z M 432.515625 591.003906 L 491.40625 591.003906 L 491.40625 649.894531 L 432.515625 649.894531 Z M 432.515625 591.003906 " fill-opacity="1" fill-rule="nonzero"/><path fill="#f3652f" d="M 100.371094 494.421875 L 46.046875 494.421875 C 45.585938 494.421875 45.128906 494.46875 44.675781 494.558594 C 44.222656 494.648438 43.785156 494.78125 43.359375 494.957031 C 42.933594 495.132812 42.527344 495.351562 42.144531 495.605469 C 41.761719 495.863281 41.40625 496.152344 41.082031 496.480469 C 40.757812 496.804688 40.464844 497.160156 40.207031 497.542969 C 39.953125 497.925781 39.738281 498.328125 39.558594 498.753906 C 39.382812 499.179688 39.25 499.621094 39.160156 500.074219 C 39.070312 500.523438 39.027344 500.980469 39.027344 501.441406 L 39.027344 555.699219 C 39.027344 556.160156 39.070312 556.617188 39.160156 557.070312 C 39.25 557.519531 39.382812 557.960938 39.558594 558.386719 C 39.738281 558.8125 39.953125 559.214844 40.207031 559.597656 C 40.464844 559.980469 40.757812 560.335938 41.082031 560.664062 C 41.40625 560.988281 41.761719 561.28125 42.144531 561.535156 C 42.527344 561.792969 42.933594 562.007812 43.359375 562.183594 C 43.785156 562.359375 44.222656 562.492188 44.675781 562.582031 C 45.128906 562.671875 45.585938 562.71875 46.046875 562.71875 L 100.371094 562.71875 C 100.832031 562.71875 101.289062 562.671875 101.742188 562.582031 C 102.195312 562.492188 102.632812 562.359375 103.058594 562.183594 C 103.484375 562.007812 103.890625 561.792969 104.273438 561.535156 C 104.65625 561.28125 105.011719 560.988281 105.335938 560.664062 C 105.660156 560.335938 105.953125 559.980469 106.207031 559.597656 C 106.464844 559.214844 106.679688 558.8125 106.855469 558.386719 C 107.035156 557.960938 107.167969 557.519531 107.257812 557.070312 C 107.347656 556.617188 107.390625 556.160156 107.390625 555.699219 L 107.390625 501.441406 C 107.390625 500.980469 107.347656 500.523438 107.257812 500.074219 C 107.167969 499.621094 107.035156 499.179688 106.855469 498.753906 C 106.679688 498.328125 106.464844 497.925781 106.207031 497.542969 C 105.953125 497.160156 105.660156 496.804688 105.335938 496.480469 C 105.011719 496.152344 104.65625 495.863281 104.273438 495.605469 C 103.890625 495.351562 103.484375 495.132812 103.058594 494.957031 C 102.632812 494.78125 102.195312 494.648438 101.742188 494.558594 C 101.289062 494.46875 100.832031 494.421875 100.371094 494.421875 Z M 93.355469 548.679688 L 53.0625 548.679688 L 53.0625 508.460938 L 93.355469 508.460938 Z M 93.355469 548.679688 " fill-opacity="1" fill-rule="nonzero"/><path fill="#f3652f" d="M 190.496094 494.421875 L 136.238281 494.421875 C 135.777344 494.421875 135.324219 494.46875 134.871094 494.558594 C 134.417969 494.648438 133.980469 494.78125 133.554688 494.957031 C 133.128906 495.132812 132.722656 495.351562 132.339844 495.605469 C 131.957031 495.863281 131.601562 496.152344 131.277344 496.480469 C 130.949219 496.804688 130.660156 497.160156 130.402344 497.542969 C 130.148438 497.925781 129.929688 498.328125 129.753906 498.753906 C 129.578125 499.179688 129.445312 499.621094 129.355469 500.074219 C 129.265625 500.523438 129.222656 500.980469 129.222656 501.441406 L 129.222656 555.699219 C 129.222656 556.160156 129.265625 556.617188 129.355469 557.070312 C 129.445312 557.519531 129.578125 557.960938 129.753906 558.386719 C 129.929688 558.8125 130.148438 559.214844 130.402344 559.597656 C 130.660156 559.980469 130.949219 560.335938 131.277344 560.664062 C 131.601562 560.988281 131.957031 561.28125 132.339844 561.535156 C 132.722656 561.792969 133.128906 562.007812 133.554688 562.183594 C 133.980469 562.359375 134.417969 562.492188 134.871094 562.582031 C 135.324219 562.671875 135.777344 562.71875 136.238281 562.71875 L 190.496094 562.71875 C 190.957031 562.71875 191.414062 562.671875 191.867188 562.582031 C 192.320312 562.492188 192.757812 562.359375 193.183594 562.183594 C 193.609375 562.007812 194.015625 561.792969 194.398438 561.535156 C 194.78125 561.28125 195.132812 560.988281 195.460938 560.664062 C 195.785156 560.335938 196.078125 559.980469 196.332031 559.597656 C 196.589844 559.214844 196.804688 558.8125 196.980469 558.386719 C 197.160156 557.960938 197.292969 557.519531 197.382812 557.070312 C 197.472656 556.617188 197.515625 556.160156 197.515625 555.699219 L 197.515625 501.441406 C 197.515625 500.980469 197.472656 500.523438 197.382812 500.074219 C 197.292969 499.621094 197.160156 499.179688 196.980469 498.753906 C 196.804688 498.328125 196.589844 497.925781 196.332031 497.542969 C 196.078125 497.160156 195.785156 496.804688 195.460938 496.480469 C 195.132812 496.152344 194.78125 495.863281 194.398438 495.605469 C 194.015625 495.351562 193.609375 495.132812 193.183594 494.957031 C 192.757812 494.78125 192.320312 494.648438 191.867188 494.558594 C 191.414062 494.46875 190.957031 494.421875 190.496094 494.421875 Z M 183.476562 548.679688 L 143.257812 548.679688 L 143.257812 508.460938 L 183.476562 508.460938 Z M 183.476562 548.679688 " fill-opacity="1" fill-rule="nonzero"/><path fill="#f3652f" d="M 100.371094 592.128906 L 46.046875 592.128906 C 45.585938 592.128906 45.128906 592.171875 44.675781 592.261719 C 44.222656 592.351562 43.785156 592.484375 43.359375 592.664062 C 42.933594 592.839844 42.527344 593.054688 42.144531 593.3125 C 41.761719 593.566406 41.40625 593.859375 41.082031 594.183594 C 40.757812 594.511719 40.464844 594.863281 40.207031 595.246094 C 39.953125 595.632812 39.738281 596.035156 39.558594 596.460938 C 39.382812 596.886719 39.25 597.324219 39.160156 597.777344 C 39.070312 598.230469 39.027344 598.6875 39.027344 599.148438 L 39.027344 653.40625 C 39.027344 653.867188 39.070312 654.320312 39.160156 654.773438 C 39.25 655.226562 39.382812 655.664062 39.558594 656.089844 C 39.738281 656.515625 39.953125 656.921875 40.207031 657.304688 C 40.464844 657.6875 40.757812 658.042969 41.082031 658.367188 C 41.40625 658.695312 41.761719 658.984375 42.144531 659.242188 C 42.527344 659.496094 42.933594 659.714844 43.359375 659.890625 C 43.785156 660.066406 44.222656 660.199219 44.675781 660.289062 C 45.128906 660.378906 45.585938 660.421875 46.046875 660.421875 L 100.371094 660.421875 C 100.832031 660.421875 101.289062 660.378906 101.742188 660.289062 C 102.195312 660.199219 102.632812 660.066406 103.058594 659.890625 C 103.484375 659.714844 103.890625 659.496094 104.273438 659.242188 C 104.65625 658.984375 105.011719 658.695312 105.335938 658.367188 C 105.660156 658.042969 105.953125 657.6875 106.207031 657.304688 C 106.464844 656.921875 106.679688 656.515625 106.855469 656.089844 C 107.035156 655.664062 107.167969 655.226562 107.257812 654.773438 C 107.347656 654.320312 107.390625 653.867188 107.390625 653.40625 L 107.390625 599.148438 C 107.390625 598.6875 107.347656 598.230469 107.257812 597.777344 C 107.167969 597.324219 107.035156 596.886719 106.855469 596.460938 C 106.679688 596.035156 106.464844 595.628906 106.207031 595.246094 C 105.953125 594.863281 105.660156 594.511719 105.335938 594.183594 C 105.011719 593.859375 104.65625 593.566406 104.273438 593.3125 C 103.890625 593.054688 103.484375 592.839844 103.058594 592.664062 C 102.632812 592.484375 102.195312 592.351562 101.742188 592.261719 C 101.289062 592.171875 100.832031 592.128906 100.371094 592.128906 Z M 93.355469 646.386719 L 53.0625 646.386719 L 53.0625 606.167969 L 93.355469 606.167969 Z M 93.355469 646.386719 " fill-opacity="1" fill-rule="nonzero"/><path fill="#f3652f" d="M 190.496094 592.128906 L 136.238281 592.128906 C 135.777344 592.128906 135.324219 592.171875 134.871094 592.261719 C 134.417969 592.351562 133.980469 592.484375 133.554688 592.664062 C 133.128906 592.839844 132.722656 593.054688 132.339844 593.3125 C 131.957031 593.566406 131.601562 593.859375 131.277344 594.183594 C 130.949219 594.511719 130.660156 594.863281 130.402344 595.246094 C 130.148438 595.632812 129.929688 596.035156 129.753906 596.460938 C 129.578125 596.886719 129.445312 597.324219 129.355469 597.777344 C 129.265625 598.230469 129.222656 598.6875 129.222656 599.148438 L 129.222656 653.40625 C 129.222656 653.867188 129.265625 654.320312 129.355469 654.773438 C 129.445312 655.226562 129.578125 655.664062 129.753906 656.089844 C 129.929688 656.515625 130.148438 656.921875 130.402344 657.304688 C 130.660156 657.6875 130.949219 658.042969 131.277344 658.367188 C 131.601562 658.695312 131.957031 658.984375 132.339844 659.242188 C 132.722656 659.496094 133.128906 659.714844 133.554688 659.890625 C 133.980469 660.066406 134.417969 660.199219 134.871094 660.289062 C 135.324219 660.378906 135.777344 660.421875 136.238281 660.421875 L 190.496094 660.421875 C 190.957031 660.421875 191.414062 660.378906 191.867188 660.289062 C 192.320312 660.199219 192.757812 660.066406 193.183594 659.890625 C 193.609375 659.714844 194.015625 659.496094 194.398438 659.242188 C 194.78125 658.984375 195.132812 658.695312 195.460938 658.367188 C 195.785156 658.042969 196.078125 657.6875 196.332031 657.304688 C 196.589844 656.921875 196.804688 656.515625 196.980469 656.089844 C 197.160156 655.664062 197.292969 655.226562 197.382812 654.773438 C 197.472656 654.320312 197.515625 653.867188 197.515625 653.40625 L 197.515625 599.148438 C 197.515625 598.6875 197.472656 598.230469 197.382812 597.777344 C 197.292969 597.324219 197.160156 596.886719 196.980469 596.460938 C 196.804688 596.035156 196.589844 595.628906 196.332031 595.246094 C 196.078125 594.863281 195.785156 594.511719 195.460938 594.183594 C 195.132812 593.859375 194.78125 593.566406 194.398438 593.3125 C 194.015625 593.054688 193.609375 592.839844 193.183594 592.664062 C 192.757812 592.484375 192.320312 592.351562 191.867188 592.261719 C 191.414062 592.171875 190.957031 592.128906 190.496094 592.128906 Z M 183.476562 646.386719 L 143.257812 646.386719 L 143.257812 606.167969 L 183.476562 606.167969 Z M 183.476562 646.386719 " fill-opacity="1" fill-rule="nonzero"/><path fill="#f3652f" d="M 100.371094 689.761719 L 46.046875 689.761719 C 45.585938 689.761719 45.128906 689.808594 44.675781 689.898438 C 44.222656 689.988281 43.785156 690.121094 43.359375 690.296875 C 42.933594 690.472656 42.527344 690.691406 42.144531 690.945312 C 41.761719 691.203125 41.40625 691.492188 41.082031 691.820312 C 40.757812 692.144531 40.464844 692.5 40.207031 692.882812 C 39.953125 693.265625 39.738281 693.671875 39.558594 694.097656 C 39.382812 694.523438 39.25 694.960938 39.160156 695.414062 C 39.070312 695.863281 39.027344 696.320312 39.027344 696.78125 L 39.027344 751.109375 C 39.027344 751.570312 39.070312 752.027344 39.160156 752.480469 C 39.25 752.929688 39.382812 753.371094 39.558594 753.796875 C 39.738281 754.222656 39.953125 754.625 40.207031 755.007812 C 40.464844 755.394531 40.757812 755.746094 41.082031 756.074219 C 41.40625 756.398438 41.761719 756.691406 42.144531 756.945312 C 42.527344 757.203125 42.933594 757.417969 43.359375 757.59375 C 43.785156 757.769531 44.222656 757.902344 44.675781 757.992188 C 45.128906 758.085938 45.585938 758.128906 46.046875 758.128906 L 100.371094 758.128906 C 100.832031 758.128906 101.289062 758.085938 101.742188 757.992188 C 102.195312 757.902344 102.632812 757.769531 103.058594 757.59375 C 103.484375 757.417969 103.890625 757.203125 104.273438 756.945312 C 104.65625 756.691406 105.011719 756.398438 105.335938 756.074219 C 105.660156 755.746094 105.953125 755.394531 106.207031 755.007812 C 106.464844 754.625 106.679688 754.222656 106.855469 753.796875 C 107.035156 753.371094 107.167969 752.929688 107.257812 752.480469 C 107.347656 752.027344 107.390625 751.570312 107.390625 751.109375 L 107.390625 696.78125 C 107.390625 696.320312 107.347656 695.863281 107.257812 695.414062 C 107.167969 694.960938 107.035156 694.523438 106.855469 694.097656 C 106.679688 693.671875 106.464844 693.265625 106.207031 692.882812 C 105.953125 692.5 105.660156 692.144531 105.335938 691.820312 C 105.011719 691.492188 104.65625 691.203125 104.273438 690.945312 C 103.890625 690.691406 103.484375 690.472656 103.058594 690.296875 C 102.632812 690.121094 102.195312 689.988281 101.742188 689.898438 C 101.289062 689.808594 100.832031 689.761719 100.371094 689.761719 Z M 93.355469 744.089844 L 53.0625 744.089844 L 53.0625 703.800781 L 93.355469 703.800781 Z M 93.355469 744.089844 " fill-opacity="1" fill-rule="nonzero"/><path fill="#f3652f" d="M 190.496094 689.761719 L 136.238281 689.761719 C 135.777344 689.761719 135.324219 689.808594 134.871094 689.898438 C 134.417969 689.988281 133.980469 690.121094 133.554688 690.296875 C 133.128906 690.472656 132.722656 690.691406 132.339844 690.945312 C 131.957031 691.203125 131.601562 691.492188 131.277344 691.820312 C 130.949219 692.144531 130.660156 692.5 130.402344 692.882812 C 130.148438 693.265625 129.929688 693.671875 129.753906 694.097656 C 129.578125 694.523438 129.445312 694.960938 129.355469 695.414062 C 129.265625 695.863281 129.222656 696.320312 129.222656 696.78125 L 129.222656 751.109375 C 129.222656 751.570312 129.265625 752.027344 129.355469 752.480469 C 129.445312 752.929688 129.578125 753.371094 129.753906 753.796875 C 129.929688 754.222656 130.148438 754.625 130.402344 755.007812 C 130.660156 755.394531 130.949219 755.746094 131.277344 756.074219 C 131.601562 756.398438 131.957031 756.691406 132.339844 756.945312 C 132.722656 757.203125 133.128906 757.417969 133.554688 757.59375 C 133.980469 757.769531 134.417969 757.902344 134.871094 757.992188 C 135.324219 758.085938 135.777344 758.128906 136.238281 758.128906 L 190.496094 758.128906 C 190.957031 758.128906 191.414062 758.085938 191.867188 757.992188 C 192.320312 757.902344 192.757812 757.769531 193.183594 757.59375 C 193.609375 757.417969 194.015625 757.203125 194.398438 756.945312 C 194.78125 756.691406 195.132812 756.398438 195.460938 756.074219 C 195.785156 755.746094 196.078125 755.394531 196.332031 755.007812 C 196.589844 754.625 196.804688 754.222656 196.980469 753.796875 C 197.160156 753.371094 197.292969 752.929688 197.382812 752.480469 C 197.472656 752.027344 197.515625 751.570312 197.515625 751.109375 L 197.515625 696.78125 C 197.515625 696.320312 197.472656 695.863281 197.382812 695.414062 C 197.292969 694.960938 197.160156 694.523438 196.980469 694.097656 C 196.804688 693.671875 196.589844 693.265625 196.332031 692.882812 C 196.078125 692.5 195.785156 692.144531 195.460938 691.820312 C 195.132812 691.492188 194.78125 691.203125 194.398438 690.945312 C 194.015625 690.691406 193.609375 690.472656 193.183594 690.296875 C 192.757812 690.121094 192.320312 689.988281 191.867188 689.898438 C 191.414062 689.808594 190.957031 689.761719 190.496094 689.761719 Z M 183.476562 744.089844 L 143.257812 744.089844 L 143.257812 703.800781 L 183.476562 703.800781 Z M 183.476562 744.089844 " fill-opacity="1" fill-rule="nonzero"/><path fill="#f3652f" d="M 673.761719 494.421875 L 619.503906 494.421875 C 619.042969 494.421875 618.585938 494.46875 618.132812 494.558594 C 617.679688 494.648438 617.242188 494.78125 616.816406 494.957031 C 616.390625 495.132812 615.984375 495.351562 615.601562 495.605469 C 615.21875 495.863281 614.863281 496.152344 614.539062 496.480469 C 614.214844 496.804688 613.921875 497.160156 613.667969 497.542969 C 613.410156 497.925781 613.195312 498.328125 613.019531 498.753906 C 612.839844 499.179688 612.707031 499.621094 612.617188 500.074219 C 612.527344 500.523438 612.484375 500.980469 612.484375 501.441406 L 612.484375 555.699219 C 612.484375 556.160156 612.527344 556.617188 612.617188 557.070312 C 612.707031 557.519531 612.839844 557.960938 613.019531 558.386719 C 613.195312 558.8125 613.410156 559.214844 613.667969 559.597656 C 613.921875 559.980469 614.214844 560.335938 614.539062 560.664062 C 614.863281 560.988281 615.21875 561.28125 615.601562 561.535156 C 615.984375 561.792969 616.390625 562.007812 616.816406 562.183594 C 617.242188 562.359375 617.679688 562.492188 618.132812 562.582031 C 618.585938 562.671875 619.042969 562.71875 619.503906 562.71875 L 673.761719 562.71875 C 674.222656 562.71875 674.675781 562.671875 675.128906 562.582031 C 675.582031 562.492188 676.019531 562.359375 676.445312 562.183594 C 676.871094 562.007812 677.277344 561.792969 677.660156 561.535156 C 678.042969 561.28125 678.398438 560.988281 678.722656 560.664062 C 679.050781 560.335938 679.339844 559.980469 679.597656 559.597656 C 679.851562 559.214844 680.066406 558.8125 680.246094 558.386719 C 680.421875 557.960938 680.554688 557.519531 680.644531 557.070312 C 680.734375 556.617188 680.777344 556.160156 680.777344 555.699219 L 680.777344 501.441406 C 680.777344 500.980469 680.734375 500.523438 680.644531 500.074219 C 680.554688 499.621094 680.421875 499.179688 680.246094 498.753906 C 680.066406 498.328125 679.851562 497.925781 679.597656 497.542969 C 679.339844 497.160156 679.050781 496.804688 678.722656 496.480469 C 678.398438 496.152344 678.042969 495.863281 677.660156 495.605469 C 677.277344 495.351562 676.871094 495.132812 676.445312 494.957031 C 676.019531 494.78125 675.582031 494.648438 675.128906 494.558594 C 674.675781 494.46875 674.222656 494.421875 673.761719 494.421875 Z M 666.742188 548.679688 L 626.523438 548.679688 L 626.523438 508.460938 L 666.742188 508.460938 Z M 666.742188 548.679688 " fill-opacity="1" fill-rule="nonzero"/><path fill="#f3652f" d="M 763.953125 494.421875 L 709.628906 494.421875 C 709.167969 494.421875 708.710938 494.46875 708.257812 494.558594 C 707.804688 494.648438 707.367188 494.78125 706.941406 494.957031 C 706.515625 495.132812 706.109375 495.351562 705.726562 495.605469 C 705.34375 495.863281 704.988281 496.152344 704.664062 496.480469 C 704.339844 496.804688 704.046875 497.160156 703.792969 497.542969 C 703.535156 497.925781 703.320312 498.328125 703.144531 498.753906 C 702.964844 499.179688 702.832031 499.621094 702.742188 500.074219 C 702.652344 500.523438 702.609375 500.980469 702.609375 501.441406 L 702.609375 555.699219 C 702.609375 556.160156 702.652344 556.617188 702.742188 557.070312 C 702.832031 557.519531 702.964844 557.960938 703.140625 558.386719 C 703.320312 558.8125 703.535156 559.214844 703.792969 559.597656 C 704.046875 559.980469 704.339844 560.335938 704.664062 560.664062 C 704.988281 560.988281 705.34375 561.28125 705.726562 561.535156 C 706.109375 561.792969 706.515625 562.007812 706.941406 562.183594 C 707.367188 562.359375 707.804688 562.492188 708.257812 562.582031 C 708.710938 562.671875 709.167969 562.71875 709.628906 562.71875 L 763.953125 562.71875 C 764.414062 562.71875 764.871094 562.671875 765.324219 562.582031 C 765.777344 562.492188 766.214844 562.359375 766.640625 562.183594 C 767.066406 562.007812 767.472656 561.792969 767.855469 561.535156 C 768.238281 561.28125 768.59375 560.988281 768.917969 560.664062 C 769.242188 560.335938 769.535156 559.980469 769.789062 559.597656 C 770.046875 559.214844 770.261719 558.8125 770.441406 558.386719 C 770.617188 557.960938 770.75 557.519531 770.839844 557.070312 C 770.929688 556.617188 770.972656 556.160156 770.972656 555.699219 L 770.972656 501.441406 C 770.972656 500.980469 770.929688 500.523438 770.839844 500.074219 C 770.75 499.621094 770.617188 499.179688 770.441406 498.753906 C 770.261719 498.328125 770.046875 497.925781 769.789062 497.542969 C 769.535156 497.160156 769.242188 496.804688 768.917969 496.480469 C 768.59375 496.152344 768.238281 495.863281 767.855469 495.605469 C 767.472656 495.351562 767.066406 495.132812 766.640625 494.957031 C 766.214844 494.78125 765.777344 494.648438 765.324219 494.558594 C 764.871094 494.46875 764.414062 494.421875 763.953125 494.421875 Z M 756.9375 548.679688 L 716.644531 548.679688 L 716.644531 508.460938 L 756.9375 508.460938 Z M 756.9375 548.679688 " fill-opacity="1" fill-rule="nonzero"/><path fill="#f3652f" d="M 673.761719 592.128906 L 619.503906 592.128906 C 619.042969 592.128906 618.585938 592.171875 618.132812 592.261719 C 617.679688 592.351562 617.242188 592.484375 616.816406 592.664062 C 616.390625 592.839844 615.984375 593.054688 615.601562 593.3125 C 615.21875 593.566406 614.863281 593.859375 614.539062 594.183594 C 614.214844 594.511719 613.921875 594.863281 613.667969 595.246094 C 613.410156 595.632812 613.195312 596.035156 613.019531 596.460938 C 612.839844 596.886719 612.707031 597.324219 612.617188 597.777344 C 612.527344 598.230469 612.484375 598.6875 612.484375 599.148438 L 612.484375 653.40625 C 612.484375 653.867188 612.527344 654.320312 612.617188 654.773438 C 612.707031 655.226562 612.839844 655.664062 613.019531 656.089844 C 613.195312 656.515625 613.410156 656.921875 613.667969 657.304688 C 613.921875 657.6875 614.214844 658.042969 614.539062 658.367188 C 614.863281 658.695312 615.21875 658.984375 615.601562 659.242188 C 615.984375 659.496094 616.390625 659.714844 616.816406 659.890625 C 617.242188 660.066406 617.679688 660.199219 618.132812 660.289062 C 618.585938 660.378906 619.042969 660.421875 619.503906 660.421875 L 673.761719 660.421875 C 674.222656 660.421875 674.675781 660.378906 675.128906 660.289062 C 675.582031 660.199219 676.019531 660.066406 676.445312 659.890625 C 676.871094 659.714844 677.277344 659.496094 677.660156 659.242188 C 678.042969 658.984375 678.398438 658.695312 678.722656 658.367188 C 679.050781 658.042969 679.339844 657.6875 679.597656 657.304688 C 679.851562 656.921875 680.066406 656.515625 680.246094 656.089844 C 680.421875 655.664062 680.554688 655.226562 680.644531 654.773438 C 680.734375 654.320312 680.777344 653.867188 680.777344 653.40625 L 680.777344 599.148438 C 680.777344 598.6875 680.734375 598.230469 680.644531 597.777344 C 680.554688 597.324219 680.421875 596.886719 680.246094 596.460938 C 680.066406 596.035156 679.851562 595.628906 679.597656 595.246094 C 679.339844 594.863281 679.050781 594.511719 678.722656 594.183594 C 678.398438 593.859375 678.042969 593.566406 677.660156 593.3125 C 677.277344 593.054688 676.871094 592.839844 676.445312 592.664062 C 676.019531 592.484375 675.582031 592.351562 675.128906 592.261719 C 674.675781 592.171875 674.222656 592.128906 673.761719 592.128906 Z M 666.742188 646.386719 L 626.523438 646.386719 L 626.523438 606.167969 L 666.742188 606.167969 Z M 666.742188 646.386719 " fill-opacity="1" fill-rule="nonzero"/><path fill="#f3652f" d="M 763.953125 592.128906 L 709.628906 592.128906 C 709.167969 592.128906 708.710938 592.171875 708.257812 592.261719 C 707.804688 592.351562 707.367188 592.484375 706.941406 592.664062 C 706.515625 592.839844 706.109375 593.054688 705.726562 593.3125 C 705.34375 593.566406 704.988281 593.859375 704.664062 594.183594 C 704.339844 594.511719 704.046875 594.863281 703.792969 595.246094 C 703.535156 595.632812 703.320312 596.035156 703.144531 596.460938 C 702.964844 596.886719 702.832031 597.324219 702.742188 597.777344 C 702.652344 598.230469 702.609375 598.6875 702.609375 599.148438 L 702.609375 653.40625 C 702.609375 653.867188 702.652344 654.320312 702.742188 654.773438 C 702.832031 655.226562 702.964844 655.664062 703.140625 656.089844 C 703.320312 656.515625 703.535156 656.921875 703.792969 657.304688 C 704.046875 657.6875 704.339844 658.042969 704.664062 658.367188 C 704.988281 658.695312 705.34375 658.984375 705.726562 659.242188 C 706.109375 659.496094 706.515625 659.714844 706.941406 659.890625 C 707.367188 660.066406 707.804688 660.199219 708.257812 660.289062 C 708.710938 660.378906 709.167969 660.421875 709.628906 660.421875 L 763.953125 660.421875 C 764.414062 660.421875 764.871094 660.378906 765.324219 660.289062 C 765.777344 660.199219 766.214844 660.066406 766.640625 659.890625 C 767.066406 659.714844 767.472656 659.496094 767.855469 659.242188 C 768.238281 658.984375 768.59375 658.695312 768.917969 658.367188 C 769.242188 658.042969 769.535156 657.6875 769.789062 657.304688 C 770.046875 656.921875 770.261719 656.515625 770.441406 656.089844 C 770.617188 655.664062 770.75 655.226562 770.839844 654.773438 C 770.929688 654.320312 770.972656 653.867188 770.972656 653.40625 L 770.972656 599.148438 C 770.972656 598.6875 770.929688 598.230469 770.839844 597.777344 C 770.75 597.324219 770.617188 596.886719 770.441406 596.460938 C 770.261719 596.035156 770.046875 595.628906 769.789062 595.246094 C 769.535156 594.863281 769.242188 594.511719 768.917969 594.183594 C 768.59375 593.859375 768.238281 593.566406 767.855469 593.3125 C 767.472656 593.054688 767.066406 592.839844 766.640625 592.664062 C 766.214844 592.484375 765.777344 592.351562 765.324219 592.261719 C 764.871094 592.171875 764.414062 592.128906 763.953125 592.128906 Z M 756.9375 646.386719 L 716.644531 646.386719 L 716.644531 606.167969 L 756.9375 606.167969 Z M 756.9375 646.386719 " fill-opacity="1" fill-rule="nonzero"/><path fill="#f3652f" d="M 673.761719 689.761719 L 619.503906 689.761719 C 619.042969 689.761719 618.585938 689.808594 618.132812 689.898438 C 617.679688 689.988281 617.242188 690.121094 616.816406 690.296875 C 616.390625 690.472656 615.984375 690.691406 615.601562 690.945312 C 615.21875 691.203125 614.863281 691.492188 614.539062 691.820312 C 614.214844 692.144531 613.921875 692.5 613.667969 692.882812 C 613.410156 693.265625 613.195312 693.671875 613.019531 694.097656 C 612.839844 694.523438 612.707031 694.960938 612.617188 695.414062 C 612.527344 695.863281 612.484375 696.320312 612.484375 696.78125 L 612.484375 751.109375 C 612.484375 751.570312 612.527344 752.027344 612.617188 752.480469 C 612.707031 752.929688 612.839844 753.371094 613.019531 753.796875 C 613.195312 754.222656 613.410156 754.625 613.667969 755.007812 C 613.921875 755.394531 614.214844 755.746094 614.539062 756.074219 C 614.863281 756.398438 615.21875 756.691406 615.601562 756.945312 C 615.984375 757.203125 616.390625 757.417969 616.816406 757.59375 C 617.242188 757.769531 617.679688 757.902344 618.132812 757.992188 C 618.585938 758.085938 619.042969 758.128906 619.503906 758.128906 L 673.761719 758.128906 C 674.222656 758.128906 674.675781 758.085938 675.128906 757.992188 C 675.582031 757.902344 676.019531 757.769531 676.445312 757.59375 C 676.871094 757.417969 677.277344 757.203125 677.660156 756.945312 C 678.042969 756.691406 678.398438 756.398438 678.722656 756.074219 C 679.050781 755.746094 679.339844 755.394531 679.597656 755.007812 C 679.851562 754.625 680.066406 754.222656 680.246094 753.796875 C 680.421875 753.371094 680.554688 752.929688 680.644531 752.480469 C 680.734375 752.027344 680.777344 751.570312 680.777344 751.109375 L 680.777344 696.78125 C 680.777344 696.320312 680.734375 695.863281 680.644531 695.414062 C 680.554688 694.960938 680.421875 694.523438 680.246094 694.097656 C 680.066406 693.671875 679.851562 693.265625 679.597656 692.882812 C 679.339844 692.5 679.050781 692.144531 678.722656 691.820312 C 678.398438 691.492188 678.042969 691.203125 677.660156 690.945312 C 677.277344 690.691406 676.871094 690.472656 676.445312 690.296875 C 676.019531 690.121094 675.582031 689.988281 675.128906 689.898438 C 674.675781 689.808594 674.222656 689.761719 673.761719 689.761719 Z M 666.742188 744.089844 L 626.523438 744.089844 L 626.523438 703.800781 L 666.742188 703.800781 Z M 666.742188 744.089844 " fill-opacity="1" fill-rule="nonzero"/><path fill="#f3652f" d="M 763.953125 689.761719 L 709.628906 689.761719 C 709.167969 689.761719 708.710938 689.808594 708.257812 689.898438 C 707.804688 689.988281 707.367188 690.121094 706.941406 690.296875 C 706.515625 690.472656 706.109375 690.691406 705.726562 690.945312 C 705.34375 691.203125 704.988281 691.492188 704.664062 691.820312 C 704.339844 692.144531 704.046875 692.5 703.792969 692.882812 C 703.535156 693.265625 703.320312 693.671875 703.144531 694.097656 C 702.964844 694.523438 702.832031 694.960938 702.742188 695.414062 C 702.652344 695.863281 702.609375 696.320312 702.609375 696.78125 L 702.609375 751.109375 C 702.609375 751.570312 702.652344 752.027344 702.742188 752.480469 C 702.832031 752.929688 702.964844 753.371094 703.140625 753.796875 C 703.320312 754.222656 703.535156 754.625 703.792969 755.007812 C 704.046875 755.394531 704.339844 755.746094 704.664062 756.074219 C 704.988281 756.398438 705.34375 756.691406 705.726562 756.945312 C 706.109375 757.203125 706.515625 757.417969 706.941406 757.59375 C 707.367188 757.769531 707.804688 757.902344 708.257812 757.992188 C 708.710938 758.085938 709.167969 758.128906 709.628906 758.128906 L 763.953125 758.128906 C 764.414062 758.128906 764.871094 758.085938 765.324219 757.992188 C 765.777344 757.902344 766.214844 757.769531 766.640625 757.59375 C 767.066406 757.417969 767.472656 757.203125 767.855469 756.945312 C 768.238281 756.691406 768.59375 756.398438 768.917969 756.074219 C 769.242188 755.746094 769.535156 755.394531 769.789062 755.007812 C 770.046875 754.625 770.261719 754.222656 770.441406 753.796875 C 770.617188 753.371094 770.75 752.929688 770.839844 752.480469 C 770.929688 752.027344 770.972656 751.570312 770.972656 751.109375 L 770.972656 696.78125 C 770.972656 696.320312 770.929688 695.863281 770.839844 695.414062 C 770.75 694.960938 770.617188 694.523438 770.441406 694.097656 C 770.261719 693.671875 770.046875 693.265625 769.789062 692.882812 C 769.535156 692.5 769.242188 692.144531 768.917969 691.820312 C 768.59375 691.492188 768.238281 691.203125 767.855469 690.945312 C 767.472656 690.691406 767.066406 690.472656 766.640625 690.296875 C 766.214844 690.121094 765.777344 689.988281 765.324219 689.898438 C 764.871094 689.808594 764.414062 689.761719 763.953125 689.761719 Z M 756.9375 744.089844 L 716.644531 744.089844 L 716.644531 703.800781 L 756.9375 703.800781 Z M 756.9375 744.089844 " fill-opacity="1" fill-rule="nonzero"/></svg>